<?xml version="1.0" encoding="UTF-8" standalone="no"?>
<!-- Created with Inkscape (http://www.inkscape.org/) -->

<svg
   xmlns:dc="http://purl.org/dc/elements/1.1/"
   xmlns:cc="http://creativecommons.org/ns#"
   xmlns:rdf="http://www.w3.org/1999/02/22-rdf-syntax-ns#"
   xmlns:svg="http://www.w3.org/2000/svg"
   xmlns="http://www.w3.org/2000/svg"
   xmlns:sodipodi="http://sodipodi.sourceforge.net/DTD/sodipodi-0.dtd"
   xmlns:inkscape="http://www.inkscape.org/namespaces/inkscape"
   width="16"
   height="16"
   viewBox="0 0 4.2333333 4.2333333"
   version="1.1"
   id="svg8"
   inkscape:version="0.92.4 (5da689c313, 2019-01-14)"
   sodipodi:docname="FolderStructureAnalyserIcon.svg"
   inkscape:export-filename="C:\Users\BjornLa\source\repos\FolderStructureAnalyser\Documentation\FolderStructureAnalyserIcon_White16.png"
   inkscape:export-xdpi="96"
   inkscape:export-ydpi="96">
  <defs
     id="defs2" />
  <sodipodi:namedview
     id="base"
     pagecolor="#ffffff"
     bordercolor="#666666"
     borderopacity="1.0"
     inkscape:pageopacity="0.0"
     inkscape:pageshadow="2"
     inkscape:zoom="16"
     inkscape:cx="30.400459"
     inkscape:cy="-12.155709"
     inkscape:document-units="mm"
     inkscape:current-layer="layer1"
     showgrid="true"
     units="px"
     inkscape:pagecheckerboard="false"
     objecttolerance="20"
     inkscape:snap-grids="true"
     inkscape:window-width="2560"
     inkscape:window-height="1377"
     inkscape:window-x="2552"
     inkscape:window-y="-8"
     inkscape:window-maximized="1"
     inkscape:snap-to-guides="true"
     showguides="true"
     inkscape:guide-bbox="true">
    <inkscape:grid
       type="xygrid"
       id="grid10"
       snapvisiblegridlinesonly="true" />
  </sodipodi:namedview>
  <metadata
     id="metadata5">
    <rdf:RDF>
      <cc:Work
         rdf:about="">
        <dc:format>image/svg+xml</dc:format>
        <dc:type
           rdf:resource="http://purl.org/dc/dcmitype/StillImage" />
        <dc:title></dc:title>
      </cc:Work>
    </rdf:RDF>
  </metadata>
  <g
     inkscape:label="Layer 1"
     inkscape:groupmode="layer"
     id="layer1"
     transform="translate(0,-292.76665)">
    <path
       style="fill:#214e73;fill-opacity:1;stroke:none;stroke-width:0.50663841;stroke-opacity:1"
       d="m 14.816667,298.3229 c -0.709267,0 -1.280242,0.59001 -1.280242,1.32292 v 6.48229 c 0,-0.51303 0.599538,-0.92604 1.344254,-0.92604 h 5.248991 c 0.744717,0 1.344255,0.41301 1.344255,0.92604 v -6.48229 c 0,-0.73291 -0.570976,-1.32292 -1.280242,-1.32292 z m 0,7.67292 c -0.709267,0 -1.280242,0.59001 -1.280242,1.32292 v 1.32291 c 0,0.73291 0.570975,1.32292 1.280242,1.32292 h 5.377016 c 0.709266,0 1.280242,-0.59001 1.280242,-1.32292 v -1.32291 c 0,-0.73291 -0.570976,-1.32292 -1.280242,-1.32292 z m -0.07702,0.95911 h 3.482658 c 0.170217,0 0.307058,0.14141 0.307058,0.3173 v 0.15916 c 0,0.17589 -0.136841,0.31729 -0.307058,0.31729 h -3.482658 c -0.170217,0 -0.307058,-0.1414 -0.307058,-0.31729 v -0.15916 c 0,-0.17589 0.136841,-0.3173 0.307058,-0.3173 z m 5.18998,0 a 0.64812242,1.0748697 0 0 1 0.648123,1.07487 0.64812242,1.0748697 0 0 1 -0.648123,1.07487 0.64812242,1.0748697 0 0 1 -0.648122,-1.07487 0.64812242,1.0748697 0 0 1 0.648122,-1.07487 z m -5.18998,1.33946 h 3.482658 c 0.170217,0 0.307058,0.1414 0.307058,0.31729 v 0.15916 c 0,0.1759 -0.136841,0.3173 -0.307058,0.3173 h -3.482658 c -0.170217,0 -0.307058,-0.1414 -0.307058,-0.3173 v -0.15916 c 0,-0.17589 0.136841,-0.31729 0.307058,-0.31729 z"
       id="rect898"
       inkscape:connector-curvature="0" />
    <path
       style="fill:#214e73;fill-opacity:1;stroke:none;stroke-width:0.30077714;stroke-opacity:1"
       d="m 1.5875,298.58748 c -0.591025,0 -1.066601,0.47558 -1.066601,1.0666 v 0.94723 c 0.05588,-0.28275 0.388684,-0.42633 0.789616,-0.42633 h 1.593701 c 0.408273,0 0.745304,0.14917 0.791683,0.44235 v -0.96325 c 0,-0.59102 -0.475576,-1.0666 -1.066602,-1.0666 z m -0.276985,1.85105 c -0.419085,0 -0.756184,0.31912 -0.789616,0.72605 l 0.0057,0.20102 c 0.0172,0.59078 0.469892,0.92605 1.060917,0.92605 h 1.041797 c 0.591026,0 1.066602,-0.29419 1.066602,-0.88522 v -0.22893 c -0.02708,-0.41326 -0.368051,-0.73897 -0.791683,-0.73897 z m 0.08992,0.70487 H 2.31304 c 0.09225,0 0.166399,0.0741 0.166399,0.16639 v 0.16382 c 0,0.0923 -0.07415,0.1664 -0.166399,0.1664 H 1.400435 c -0.09225,0 -0.166398,-0.0741 -0.166398,-0.1664 v -0.16382 c 0,-0.0922 0.07415,-0.16639 0.166398,-0.16639 z"
       id="rect4666-5"
       inkscape:connector-curvature="0" />
    <path
       inkscape:connector-curvature="0"
       style="fill:#214e73;fill-opacity:1;stroke:none;stroke-width:0.65179461;stroke-opacity:1"
       d="m 7.6729167,298.3229 c -1.280556,0 -2.310971,1.031 -2.310971,2.312 v 2.05259 c 0.12107,-0.61282 0.842321,-0.92397 1.711007,-0.92397 h 3.4530193 c 0.884594,0 1.614655,0.32368 1.715141,0.95911 v -2.08773 c 0,-1.281 -1.030414,-2.312 -2.3109703,-2.312 z m -0.599964,4.01216 c -0.908016,0 -1.63857,0.69155 -1.711007,1.57355 l 0.0124,0.43563 c 0.03727,1.28044 1.018013,2.00711 2.298568,2.00711 h 2.257227 c 1.2805563,0 2.3109703,-0.63776 2.3109703,-1.91875 v -0.49609 c -0.05868,-0.89571 -0.79727,-1.60145 -1.715141,-1.60145 z m 3.6798793,1.56063 c 0.293156,0 0.529167,0.23601 0.529167,0.52916 0,0.29316 -0.236011,0.52917 -0.529167,0.52917 -0.293157,0 -0.529167,-0.23601 -0.529167,-0.52917 0,-0.29315 0.23601,-0.52916 0.529167,-0.52916 z m -3.7889163,0.0496 h 2.352311 c 0.154584,0 0.279053,0.12447 0.279053,0.27905 v 0.33486 c 0,0.15459 -0.124469,0.27905 -0.279053,0.27905 h -2.352311 c -0.154583,0 -0.279053,-0.12446 -0.279053,-0.27905 v -0.33486 c 0,-0.15458 0.12447,-0.27905 0.279053,-0.27905 z"
       id="rect4666-2" />
  </g>
</svg>
