<?xml version="1.0" encoding="UTF-8" standalone="no"?>
<!-- Created with Inkscape (http://www.inkscape.org/) -->

<svg
   xmlns:dc="http://purl.org/dc/elements/1.1/"
   xmlns:cc="http://creativecommons.org/ns#"
   xmlns:rdf="http://www.w3.org/1999/02/22-rdf-syntax-ns#"
   xmlns:svg="http://www.w3.org/2000/svg"
   xmlns="http://www.w3.org/2000/svg"
   xmlns:sodipodi="http://sodipodi.sourceforge.net/DTD/sodipodi-0.dtd"
   xmlns:inkscape="http://www.inkscape.org/namespaces/inkscape"
   width="16"
   height="16"
   viewBox="0 0 4.2333332 4.2333335"
   version="1.1"
   id="svg8"
   inkscape:version="0.92.4 (5da689c313, 2019-01-14)"
   sodipodi:docname="FolderStructureAnalyserIcon.svg">
  <defs
     id="defs2" />
  <sodipodi:namedview
     id="base"
     pagecolor="#ffffff"
     bordercolor="#666666"
     borderopacity="1.0"
     inkscape:pageopacity="0.0"
     inkscape:pageshadow="2"
     inkscape:zoom="16"
     inkscape:cx="-12.111438"
     inkscape:cy="6.7847378"
     inkscape:document-units="mm"
     inkscape:current-layer="layer1"
     showgrid="true"
     units="px"
     inkscape:pagecheckerboard="false"
     objecttolerance="20"
     inkscape:snap-grids="false"
     inkscape:window-width="2560"
     inkscape:window-height="1377"
     inkscape:window-x="2552"
     inkscape:window-y="-8"
     inkscape:window-maximized="1">
    <inkscape:grid
       type="xygrid"
       id="grid10"
       snapvisiblegridlinesonly="true" />
  </sodipodi:namedview>
  <metadata
     id="metadata5">
    <rdf:RDF>
      <cc:Work
         rdf:about="">
        <dc:format>image/svg+xml</dc:format>
        <dc:type
           rdf:resource="http://purl.org/dc/dcmitype/StillImage" />
        <dc:title></dc:title>
      </cc:Work>
    </rdf:RDF>
  </metadata>
  <g
     inkscape:label="Layer 1"
     inkscape:groupmode="layer"
     id="layer1"
     transform="translate(0,-292.76665)">
    <path
       style="fill:#214e73;fill-opacity:1;stroke:none;stroke-width:1.13679552;stroke-opacity:1"
       d="M 6.03125 1 C 3.7974524 1 2 2.7974524 2 5.03125 L 2 8.6113281 C 2.2111938 7.5426764 3.4690411 7 4.984375 7 L 11.007812 7 C 12.550894 7 13.824712 7.5638034 14 8.671875 L 14 5.03125 C 14 2.7974524 12.202548 1 9.96875 1 L 6.03125 1 z M 4.984375 7.9960938 C 3.400434 7.9960938 2.1263583 9.2022029 2 10.740234 L 2.0214844 11.5 C 2.0865036 13.732852 3.7974524 15 6.03125 15 L 9.96875 15 C 12.202548 15 14 13.888095 14 11.654297 L 14 10.789062 C 13.897638 9.2271359 12.608943 7.9960938 11.007812 7.9960938 L 4.984375 7.9960938 z M 5.3242188 10.660156 L 8.7734375 10.660156 C 9.1221 10.660156 9.4023438 10.9404 9.4023438 11.289062 L 9.4023438 11.908203 C 9.4023438 12.256866 9.1221 12.537109 8.7734375 12.537109 L 5.3242188 12.537109 C 4.9755563 12.537109 4.6953125 12.256866 4.6953125 11.908203 L 4.6953125 11.289062 C 4.6953125 10.9404 4.9755563 10.660156 5.3242188 10.660156 z "
       transform="matrix(0.26458333,0,0,0.26458333,0,292.76665)"
       id="rect4666" />
    <rect
       style="fill:#ffffff;fill-opacity:0.99497483;stroke:none;stroke-width:0.29590398;stroke-opacity:1"
       id="rect4728"
       width="0.59180796"
       height="0.59180796"
       x="5.138957"
       y="295.1619"
       ry="0.17280628" />
  </g>
</svg>
